<mxfile host="app.diagrams.net" modified="2023-03-21T09:00:16.951Z" agent="5.0 (Windows NT 10.0; Win64; x64) AppleWebKit/537.36 (KHTML, like Gecko) Chrome/86.0.4240.198 Safari/537.36" etag="bXeBB-XEWM5oqJFVDjWG" version="21.0.8" type="github">
  <diagram name="第 1 页" id="reFhzkWXAq3rWunb2qQW">
    <mxGraphModel dx="1521" dy="823" grid="0" gridSize="10" guides="1" tooltips="1" connect="1" arrows="1" fold="1" page="1" pageScale="1" pageWidth="827" pageHeight="1169" math="0" shadow="0">
      <root>
        <mxCell id="0" />
        <mxCell id="1" parent="0" />
        <mxCell id="2Hn3l6TQu6K1DUPlAZ9_-2" style="edgeStyle=orthogonalEdgeStyle;rounded=0;orthogonalLoop=1;jettySize=auto;html=1;fontStyle=0;fontSize=19;" parent="1" source="2Hn3l6TQu6K1DUPlAZ9_-1" target="2Hn3l6TQu6K1DUPlAZ9_-3" edge="1">
          <mxGeometry relative="1" as="geometry">
            <mxPoint x="203.60003662109375" y="174.79998779296875" as="targetPoint" />
            <Array as="points">
              <mxPoint x="330" y="99" />
              <mxPoint x="204" y="99" />
            </Array>
          </mxGeometry>
        </mxCell>
        <mxCell id="2Hn3l6TQu6K1DUPlAZ9_-1" value="开始" style="html=1;dashed=0;whiteSpace=wrap;shape=mxgraph.dfd.start;fontStyle=0;fontSize=19;" parent="1" vertex="1">
          <mxGeometry x="279" y="43" width="104" height="35" as="geometry" />
        </mxCell>
        <mxCell id="2Hn3l6TQu6K1DUPlAZ9_-4" style="edgeStyle=orthogonalEdgeStyle;rounded=0;orthogonalLoop=1;jettySize=auto;html=1;entryX=0.5;entryY=0;entryDx=0;entryDy=0;fontStyle=0;fontSize=19;" parent="1" source="2Hn3l6TQu6K1DUPlAZ9_-3" target="2Hn3l6TQu6K1DUPlAZ9_-5" edge="1">
          <mxGeometry relative="1" as="geometry">
            <mxPoint x="204" y="290.79998779296875" as="targetPoint" />
          </mxGeometry>
        </mxCell>
        <mxCell id="2Hn3l6TQu6K1DUPlAZ9_-3" value="输入原始图像" style="shape=parallelogram;perimeter=parallelogramPerimeter;whiteSpace=wrap;html=1;dashed=0;fontStyle=0;fontSize=19;" parent="1" vertex="1">
          <mxGeometry x="126.26" y="139" width="155.5" height="72" as="geometry" />
        </mxCell>
        <mxCell id="2Hn3l6TQu6K1DUPlAZ9_-9" value="" style="edgeStyle=orthogonalEdgeStyle;rounded=0;orthogonalLoop=1;jettySize=auto;html=1;fontStyle=0;fontSize=19;" parent="1" source="2Hn3l6TQu6K1DUPlAZ9_-5" target="2Hn3l6TQu6K1DUPlAZ9_-8" edge="1">
          <mxGeometry relative="1" as="geometry" />
        </mxCell>
        <mxCell id="2Hn3l6TQu6K1DUPlAZ9_-5" value="将图像颜色空间&lt;br style=&quot;font-size: 19px;&quot;&gt;转换为Lab空间" style="html=1;dashed=0;whiteSpace=wrap;fontStyle=0;fontSize=19;" parent="1" vertex="1">
          <mxGeometry x="120.5" y="241" width="167" height="50" as="geometry" />
        </mxCell>
        <mxCell id="2Hn3l6TQu6K1DUPlAZ9_-11" value="" style="edgeStyle=orthogonalEdgeStyle;rounded=0;orthogonalLoop=1;jettySize=auto;html=1;fontStyle=0;fontSize=19;" parent="1" source="2Hn3l6TQu6K1DUPlAZ9_-8" target="2Hn3l6TQu6K1DUPlAZ9_-10" edge="1">
          <mxGeometry relative="1" as="geometry" />
        </mxCell>
        <mxCell id="2Hn3l6TQu6K1DUPlAZ9_-8" value="初始化种子点" style="whiteSpace=wrap;html=1;dashed=0;fontStyle=0;fontSize=19;" parent="1" vertex="1">
          <mxGeometry x="141.01" y="361" width="126" height="50" as="geometry" />
        </mxCell>
        <mxCell id="2Hn3l6TQu6K1DUPlAZ9_-14" value="" style="edgeStyle=orthogonalEdgeStyle;rounded=0;orthogonalLoop=1;jettySize=auto;html=1;fontStyle=0;fontSize=19;" parent="1" source="2Hn3l6TQu6K1DUPlAZ9_-10" target="2Hn3l6TQu6K1DUPlAZ9_-13" edge="1">
          <mxGeometry relative="1" as="geometry">
            <Array as="points">
              <mxPoint x="335" y="482" />
              <mxPoint x="335" y="158" />
            </Array>
          </mxGeometry>
        </mxCell>
        <mxCell id="2Hn3l6TQu6K1DUPlAZ9_-10" value="在种子点的 s*s 的领域内&lt;br style=&quot;font-size: 19px;&quot;&gt;选择梯度值最小的像素点&lt;br style=&quot;font-size: 19px;&quot;&gt;作为新的聚类中心&amp;nbsp;" style="whiteSpace=wrap;html=1;dashed=0;fontStyle=0;fontSize=19;" parent="1" vertex="1">
          <mxGeometry x="92.63" y="446" width="222.75" height="79" as="geometry" />
        </mxCell>
        <mxCell id="2Hn3l6TQu6K1DUPlAZ9_-16" value="" style="edgeStyle=orthogonalEdgeStyle;rounded=0;orthogonalLoop=1;jettySize=auto;html=1;fontStyle=0;fontSize=19;" parent="1" source="2Hn3l6TQu6K1DUPlAZ9_-13" target="2Hn3l6TQu6K1DUPlAZ9_-15" edge="1">
          <mxGeometry relative="1" as="geometry" />
        </mxCell>
        <mxCell id="2Hn3l6TQu6K1DUPlAZ9_-13" value="在聚类中心 2S * 2S 的邻域内计算每个像素点距离，&lt;br style=&quot;font-size: 19px;&quot;&gt;并对其进行聚类" style="whiteSpace=wrap;html=1;dashed=0;fontStyle=0;fontSize=19;" parent="1" vertex="1">
          <mxGeometry x="429" y="113" width="264" height="79" as="geometry" />
        </mxCell>
        <mxCell id="2Hn3l6TQu6K1DUPlAZ9_-18" value="" style="edgeStyle=orthogonalEdgeStyle;rounded=0;orthogonalLoop=1;jettySize=auto;html=1;fontStyle=0;fontSize=19;" parent="1" source="2Hn3l6TQu6K1DUPlAZ9_-15" target="2Hn3l6TQu6K1DUPlAZ9_-17" edge="1">
          <mxGeometry relative="1" as="geometry" />
        </mxCell>
        <mxCell id="2Hn3l6TQu6K1DUPlAZ9_-23" value="" style="edgeStyle=orthogonalEdgeStyle;rounded=0;orthogonalLoop=1;jettySize=auto;html=1;fontStyle=0;fontSize=19;" parent="1" source="2Hn3l6TQu6K1DUPlAZ9_-15" target="2Hn3l6TQu6K1DUPlAZ9_-17" edge="1">
          <mxGeometry relative="1" as="geometry" />
        </mxCell>
        <mxCell id="2Hn3l6TQu6K1DUPlAZ9_-25" style="edgeStyle=orthogonalEdgeStyle;rounded=0;orthogonalLoop=1;jettySize=auto;html=1;exitX=0;exitY=0.5;exitDx=0;exitDy=0;entryX=0.5;entryY=1;entryDx=0;entryDy=0;fontStyle=0;fontSize=19;" parent="1" source="2Hn3l6TQu6K1DUPlAZ9_-15" target="2Hn3l6TQu6K1DUPlAZ9_-10" edge="1">
          <mxGeometry relative="1" as="geometry">
            <Array as="points">
              <mxPoint x="373" y="303" />
              <mxPoint x="373" y="576" />
              <mxPoint x="204" y="576" />
            </Array>
          </mxGeometry>
        </mxCell>
        <mxCell id="2Hn3l6TQu6K1DUPlAZ9_-15" value="迭代是否结束" style="rhombus;whiteSpace=wrap;html=1;dashed=0;fontStyle=0;fontSize=19;" parent="1" vertex="1">
          <mxGeometry x="487.15000000000003" y="241" width="146.57" height="123" as="geometry" />
        </mxCell>
        <mxCell id="2Hn3l6TQu6K1DUPlAZ9_-20" value="" style="edgeStyle=orthogonalEdgeStyle;rounded=0;orthogonalLoop=1;jettySize=auto;html=1;fontStyle=0;fontSize=19;" parent="1" source="2Hn3l6TQu6K1DUPlAZ9_-17" target="2Hn3l6TQu6K1DUPlAZ9_-19" edge="1">
          <mxGeometry relative="1" as="geometry" />
        </mxCell>
        <mxCell id="2Hn3l6TQu6K1DUPlAZ9_-17" value="检查联通性" style="whiteSpace=wrap;html=1;dashed=0;fontStyle=0;fontSize=19;" parent="1" vertex="1">
          <mxGeometry x="506.24" y="433" width="109.51" height="46" as="geometry" />
        </mxCell>
        <mxCell id="2Hn3l6TQu6K1DUPlAZ9_-22" style="edgeStyle=orthogonalEdgeStyle;rounded=0;orthogonalLoop=1;jettySize=auto;html=1;exitX=0.5;exitY=1;exitDx=0;exitDy=0;entryX=0.5;entryY=0.5;entryDx=0;entryDy=-15;entryPerimeter=0;fontStyle=0;fontSize=19;" parent="1" source="2Hn3l6TQu6K1DUPlAZ9_-19" target="2Hn3l6TQu6K1DUPlAZ9_-21" edge="1">
          <mxGeometry relative="1" as="geometry" />
        </mxCell>
        <mxCell id="2Hn3l6TQu6K1DUPlAZ9_-19" value="输出新图像" style="shape=parallelogram;perimeter=parallelogramPerimeter;whiteSpace=wrap;html=1;fixedSize=1;dashed=0;fontStyle=0;fontSize=19;" parent="1" vertex="1">
          <mxGeometry x="496.43" y="515" width="128" height="69.01" as="geometry" />
        </mxCell>
        <mxCell id="2Hn3l6TQu6K1DUPlAZ9_-21" value="结束" style="html=1;dashed=0;whiteSpace=wrap;shape=mxgraph.dfd.start;fontStyle=0;fontSize=19;" parent="1" vertex="1">
          <mxGeometry x="275" y="663" width="102" height="36" as="geometry" />
        </mxCell>
        <mxCell id="2Hn3l6TQu6K1DUPlAZ9_-24" value="是" style="text;html=1;align=center;verticalAlign=middle;resizable=0;points=[];autosize=1;strokeColor=none;fillColor=none;fontStyle=0;fontSize=19;" parent="1" vertex="1">
          <mxGeometry x="565" y="361" width="37" height="34" as="geometry" />
        </mxCell>
        <mxCell id="2Hn3l6TQu6K1DUPlAZ9_-26" value="否" style="text;html=1;align=center;verticalAlign=middle;resizable=0;points=[];autosize=1;strokeColor=none;fillColor=none;fontStyle=0;fontSize=19;" parent="1" vertex="1">
          <mxGeometry x="443" y="265" width="37" height="34" as="geometry" />
        </mxCell>
      </root>
    </mxGraphModel>
  </diagram>
</mxfile>
